<svg xmlns="http://www.w3.org/2000/svg" width="200" height="200" viewBox="0 0 200 200" version="1.1"><path d="M 38.500 12.387 C 27.578 15.892, 19.315 23.008, 14.592 32.976 C 11.500 39.500, 11.500 39.500, 11.500 100 C 11.500 160.500, 11.500 160.500, 14.595 167.031 C 18.448 175.163, 25.743 182.394, 33.620 185.890 C 39.500 188.500, 39.500 188.500, 100 188.500 C 160.500 188.500, 160.500 188.500, 167.024 185.408 C 175.148 181.559, 181.243 175.433, 185.341 167 C 188.500 160.500, 188.500 160.500, 188.500 100 C 188.500 39.500, 188.500 39.500, 185.702 33.500 C 182.029 25.625, 174.327 17.890, 166.605 14.321 C 160.500 11.500, 160.500 11.500, 101.500 11.301 C 55.762 11.147, 41.601 11.391, 38.500 12.387 M 69 45.011 C 69 48.570, 64.856 55.972, 61.126 59.076 C 59.132 60.736, 54.850 62.839, 51.611 63.750 C 45.722 65.405, 45.722 65.405, 46.305 75.453 C 47.889 102.728, 61.961 127.516, 86.379 146.040 C 101.464 157.485, 98.500 157.169, 109.632 148.520 C 127.884 134.338, 137.067 124.004, 144.304 109.500 C 149.750 98.583, 152.192 89.020, 152.765 76.360 C 153.269 65.220, 153.269 65.220, 147.385 63.520 C 139.866 61.349, 133.020 54.714, 131.055 47.695 C 129.740 43, 129.740 43, 99.370 43 C 69.612 43, 69 43.041, 69 45.011 M 80.366 65.922 C 79.637 69.566, 74.594 74.841, 71.117 75.598 C 65.600 76.798, 65.749 76.520, 66.520 84.203 C 67.680 95.749, 71.895 105.926, 79.423 115.354 C 82.425 119.113, 98.124 133, 99.373 133 C 99.718 133, 100 117.250, 100 98 C 100 63, 100 63, 90.475 63 C 80.950 63, 80.950 63, 80.366 65.922" stroke="none" fill="#1a1a1a" fill-rule="evenodd"/><path d="M 69 45.011 C 69 48.570, 64.856 55.972, 61.126 59.076 C 59.132 60.736, 54.850 62.839, 51.611 63.750 C 45.722 65.405, 45.722 65.405, 46.305 75.453 C 47.889 102.728, 61.961 127.516, 86.379 146.040 C 101.464 157.485, 98.500 157.169, 109.632 148.520 C 127.884 134.338, 137.067 124.004, 144.304 109.500 C 149.750 98.583, 152.192 89.020, 152.765 76.360 C 153.269 65.220, 153.269 65.220, 147.385 63.520 C 139.866 61.349, 133.020 54.714, 131.055 47.695 C 129.740 43, 129.740 43, 99.370 43 C 69.612 43, 69 43.041, 69 45.011 M 80.366 65.922 C 79.637 69.566, 74.594 74.841, 71.117 75.598 C 65.600 76.798, 65.749 76.520, 66.520 84.203 C 67.680 95.749, 71.895 105.926, 79.423 115.354 C 82.425 119.113, 98.124 133, 99.373 133 C 99.718 133, 100 117.250, 100 98 C 100 63, 100 63, 90.475 63 C 80.950 63, 80.950 63, 80.366 65.922" stroke="none" fill="#fc974a" fill-rule="evenodd"/></svg>